<svg width="800" height="800" viewBox="0 0 800 800" fill="none" xmlns="http://www.w3.org/2000/svg">
<g clip-path="url(#clip0_12_36)">
<path d="M800 619.6C788.357 624.004 775.504 623.994 763.868 619.573C752.231 615.152 742.615 606.624 736.833 595.6L621.833 436.567L605.167 414.333L471.733 595.8C466.3 606.362 457.205 614.583 446.15 618.926C435.095 623.27 422.837 623.438 411.667 619.4L583.6 388.733L423.667 180.367C435.167 176.223 447.743 176.168 459.279 180.211C470.814 184.255 480.604 192.15 487 202.567L606.2 363.567L726.067 203.233C731.543 192.86 740.639 184.86 751.628 180.754C762.616 176.649 774.73 176.725 785.667 180.967L723.6 263.333L639.533 372.767C637.199 374.849 635.331 377.402 634.052 380.257C632.772 383.112 632.111 386.205 632.111 389.333C632.111 392.462 632.772 395.555 634.052 398.41C635.331 401.265 637.199 403.818 639.533 405.9L799.667 619.633L800 619.6ZM0.0667003 385.867L14.0667 316.7C52.5334 179.933 209.333 123.033 317.2 207.7C380.367 257.333 396.133 327.6 393.033 406.8H37.2C31.4334 548.233 133.5 633.633 264 590C285.155 582.385 304.091 569.641 319.112 552.911C334.132 536.18 344.768 515.984 350.067 494.133C356.967 471.933 368.333 468.133 389.2 474.533C385.723 501.613 376.15 527.551 361.202 550.397C346.255 573.243 326.321 592.403 302.9 606.433C264.214 627.594 219.828 635.982 176.087 630.396C132.347 624.81 91.4933 605.537 59.3667 575.333C27.601 539.58 8.40257 494.417 4.70003 446.733C4.70003 438.9 2.03337 431.567 0.233367 424.533C0.0711013 411.656 -0.00667811 398.778 3.3665e-05 385.9L0.0667003 385.867ZM37.6334 376.333H359.433C357.433 273.8 292.733 201.067 206.433 200.4C110.367 199.067 41.6334 270.2 37.4 375.867L37.6334 376.333Z" fill="white"/>
</g>
<defs>
<clipPath id="clip0_12_36">
<rect width="800" height="800" fill="white"/>
</clipPath>
</defs>
</svg>
