<svg width="800" height="800" viewBox="0 0 800 800" fill="none" xmlns="http://www.w3.org/2000/svg">
<g clip-path="url(#clip0_12_33)">
<path d="M590.767 750.067C587.8 751.633 587.967 752.267 590.933 750.767C591.802 750.394 592.593 749.863 593.267 749.2C593.267 748.667 593.2 748.733 590.767 750.067ZM596.7 746.933C595.3 748.033 595.3 748.1 597 747.233C597.933 746.767 598.733 746.233 598.733 746.067C598.733 745.433 598.333 745.6 596.7 746.933ZM600.6 744.567C599.2 745.667 599.2 745.733 600.9 744.867C601.833 744.4 602.633 743.867 602.633 743.7C602.633 743.067 602.233 743.233 600.6 744.567ZM604.5 742.233C603.1 743.333 603.1 743.4 604.8 742.533C605.733 742.067 606.533 741.533 606.533 741.367C606.533 740.733 606.133 740.9 604.5 742.233ZM609.9 738.733C607.167 740.467 606.3 741.633 608.733 740.3C610.467 739.3 613.267 737.167 612.8 737.1C611.778 737.539 610.805 738.087 609.9 738.733ZM370.8 0.199993C369.067 0.36666 363.6 0.899993 358.667 1.29999C245.067 11.5333 138.633 72.8333 71.2333 167.067C33.972 218.788 9.75221 278.743 0.633325 341.833C-2.56668 363.8 -2.96667 370.3 -2.96667 400.1C-2.96667 429.9 -2.56668 436.367 0.633325 458.367C22.3667 608.567 129.267 734.767 274.233 781.533C300.2 789.9 327.567 795.6 358.667 799.033C370.8 800.367 423.167 800.367 435.3 799.033C489 793.1 534.533 779.8 579.4 756.9C586.267 753.367 587.6 752.433 586.667 751.667C564.751 722.709 543.039 693.597 521.533 664.333L457.567 577.933L377.433 459.333C350.79 419.648 323.889 380.136 296.733 340.8C296.433 340.733 296.1 393.433 295.967 457.767C295.733 570.433 295.667 574.967 294.233 577.633C292.873 580.749 290.435 583.269 287.367 584.733C284.867 586 282.667 586.233 270.867 586.233H257.333L253.733 583.967C251.512 582.567 249.705 580.599 248.5 578.267L246.867 574.733L247.033 417.967L247.267 261.133L249.7 258.1C251.335 256.179 253.299 254.565 255.5 253.333C258.7 251.767 259.967 251.6 273.5 251.6C289.467 251.6 292.1 252.233 296.267 256.767C328.705 305.041 360.872 353.498 392.767 402.133C444.7 480.867 515.667 588.367 550.567 641.167L613.9 737.1L617.1 735C647.575 714.729 675.208 690.482 699.267 662.9C749.665 605.222 782.351 534.227 793.4 458.433C796.6 436.467 797 429.967 797 400.167C797 370.367 796.6 363.9 793.4 341.9C771.667 191.7 664.767 65.5 519.8 18.7333C492.709 10.1083 464.809 4.26695 436.533 1.29999C429.033 0.533327 377.333 -0.33334 370.867 0.299993L370.8 0.199993ZM534.533 242.133C536.398 243.07 538.056 244.369 539.413 245.955C540.769 247.54 541.796 249.38 542.433 251.367C543.067 253.4 543.2 296.867 543.067 394.833L542.833 535.433L518.033 497.433L493.167 459.433V357.233C493.167 291.167 493.467 254.033 493.933 252.233C494.499 250.156 495.474 248.213 496.802 246.518C498.131 244.824 499.784 243.412 501.667 242.367C504.867 240.733 506.033 240.567 518.333 240.567C529.9 240.567 531.933 240.733 534.533 242.133Z" fill="white"/>
</g>
<defs>
<clipPath id="clip0_12_33">
<rect width="800" height="800" fill="white"/>
</clipPath>
</defs>
</svg>
