<svg width="800" height="800" viewBox="0 0 800 800" fill="none" xmlns="http://www.w3.org/2000/svg">
<g clip-path="url(#clip0_12_30)">
<path fill-rule="evenodd" clip-rule="evenodd" d="M630.25 605.249L318.475 698.199C316.303 698.858 313.997 698.942 311.783 698.443C309.568 697.944 307.521 696.88 305.841 695.353C304.161 693.827 302.906 691.891 302.197 689.734C301.489 687.578 301.352 685.275 301.8 683.049L413.2 145.274C413.671 143.078 414.819 141.084 416.481 139.573C418.144 138.062 420.239 137.11 422.47 136.851C424.702 136.591 426.959 137.038 428.924 138.127C430.888 139.216 432.463 140.894 433.425 142.924L639.65 584.449C640.575 586.412 641.062 588.553 641.079 590.723C641.096 592.893 640.642 595.041 639.749 597.018C638.855 598.995 637.543 600.755 635.903 602.177C634.263 603.598 632.334 604.646 630.25 605.249ZM683.725 583.299L445 72.0743C442.066 65.7688 437.469 60.3819 431.703 56.4926C425.937 52.6033 419.221 50.3584 412.275 49.9993C405.329 49.5216 398.386 50.9703 392.21 54.186C386.034 57.4017 380.866 62.2595 377.275 68.2243L118.4 491.199C114.451 497.602 112.397 504.992 112.477 512.514C112.556 520.036 114.766 527.382 118.85 533.699L245.45 731.424C250.22 738.814 257.256 744.459 265.504 747.514C273.751 750.57 282.767 750.872 291.2 748.374L658.7 638.799C664.25 637.183 669.384 634.382 673.749 630.59C678.113 626.799 681.603 622.106 683.979 616.836C686.355 611.566 687.561 605.843 687.512 600.062C687.464 594.281 686.164 588.579 683.7 583.349L683.725 583.299Z" fill="white"/>
</g>
<defs>
<clipPath id="clip0_12_30">
<rect width="800" height="800" fill="white"/>
</clipPath>
</defs>
</svg>
