<svg width="800" height="800" viewBox="0 0 800 800" fill="none" xmlns="http://www.w3.org/2000/svg">
<path d="M400 0C329.971 0.0181482 261.174 18.4148 200.484 53.3512C139.793 88.2876 89.3364 138.54 54.1553 199.086C18.9743 259.632 0.301634 328.351 0.00362387 398.374C-0.294386 468.397 17.7927 537.273 52.4571 598.116L16.4395 724.174C14.0883 732.404 13.9809 741.113 16.1284 749.398C18.2758 757.684 22.6001 765.244 28.653 771.296C34.7059 777.348 42.2672 781.672 50.5534 783.818C58.8396 785.965 67.5491 785.857 75.7795 783.506L201.846 747.492C255.07 777.834 314.552 795.547 375.706 799.263C436.859 802.98 498.049 792.601 554.556 768.927C611.063 745.253 661.377 708.918 701.617 662.722C741.857 616.527 770.948 561.707 786.646 502.49C802.344 443.273 804.229 381.242 792.157 321.181C780.085 261.12 754.377 204.634 717.017 156.08C679.657 107.527 631.643 68.2027 576.678 41.1413C521.713 14.0798 461.266 0.00417568 400 0ZM400 767.948C333.907 767.993 269.026 750.214 212.19 716.483C210.316 715.367 208.234 714.647 206.071 714.366C203.909 714.085 201.712 714.25 199.615 714.85L66.9864 752.742C64.2428 753.526 61.3396 753.561 58.5775 752.845C55.8155 752.129 53.2952 750.688 51.2778 748.67C49.2604 746.653 47.8193 744.132 47.1039 741.37C46.3885 738.608 46.4248 735.705 47.209 732.962L85.0997 600.346C85.6984 598.25 85.8624 596.053 85.5816 593.891C85.3009 591.729 84.5812 589.647 83.4669 587.773C42.0173 517.945 24.8274 436.37 34.5749 355.756C44.3224 275.141 80.46 200.013 137.358 142.076C194.256 84.1386 268.72 46.6447 349.15 35.4351C429.58 24.2256 511.459 39.9298 582.033 80.1013C652.606 120.273 707.912 182.656 739.333 257.533C770.754 332.41 776.528 415.576 755.754 494.075C734.979 572.575 688.824 642.001 624.478 691.537C560.131 741.073 481.207 767.938 400 767.948ZM602.045 474.14L520.207 427.377C512.803 423.152 504.407 420.972 495.882 421.063C487.357 421.153 479.01 423.511 471.697 427.893L416.471 461.027C383.038 444.09 355.88 416.932 338.942 383.501L372.076 328.279C376.458 320.967 378.816 312.62 378.906 304.096C378.997 295.572 376.817 287.178 372.592 279.774L325.828 197.939C322.01 191.277 316.502 185.74 309.86 181.886C303.218 178.032 295.677 175.997 287.998 175.988C254.135 175.996 221.655 189.418 197.666 213.317C173.677 237.215 160.133 269.643 159.998 303.503C159.936 347.664 168.581 391.403 185.438 432.221C202.296 473.038 227.035 510.131 258.241 541.38C289.448 572.629 326.508 597.419 367.304 614.334C408.1 631.249 451.83 639.956 495.994 639.957H496.475C530.337 639.822 562.767 626.278 586.667 602.291C610.566 578.304 623.99 545.826 623.998 511.965C623.99 504.287 621.955 496.746 618.101 490.105C614.247 483.464 608.708 477.957 602.045 474.14ZM496.43 607.959H495.996C456.038 607.959 416.472 600.082 379.562 584.778C342.651 569.475 309.119 547.046 280.885 518.773C252.65 490.5 230.267 456.939 215.015 420.009C199.763 383.079 191.942 343.505 191.998 303.55C192.109 278.164 202.272 253.856 220.264 235.946C238.256 218.036 262.611 207.982 287.998 207.986C290.037 207.988 292.04 208.529 293.804 209.552C295.567 210.575 297.03 212.045 298.045 213.813L344.809 295.652C346.217 298.12 346.943 300.918 346.913 303.759C346.882 306.6 346.097 309.382 344.637 311.819L307.08 374.408C305.752 376.621 304.979 379.121 304.827 381.697C304.675 384.273 305.149 386.847 306.207 389.2C327.09 435.676 364.295 472.878 410.773 493.76C413.127 494.819 415.702 495.292 418.278 495.14C420.855 494.988 423.356 494.214 425.568 492.885L488.158 455.332C490.596 453.872 493.379 453.086 496.22 453.055C499.062 453.024 501.861 453.749 504.33 455.157L586.172 501.923C587.941 502.937 589.411 504.399 590.434 506.162C591.456 507.925 591.996 509.927 591.998 511.965C592.001 537.351 581.947 561.703 564.036 579.694C546.126 597.684 521.817 607.848 496.43 607.959Z" fill="#3554F9"/>
</svg>
