<svg width="738" height="567" viewBox="0 0 738 567" fill="none" xmlns="http://www.w3.org/2000/svg">
<path d="M613.81 61.7997C567.943 40.8223 519.233 25.5333 468.39 17C461.987 28.0223 454.877 42.9553 449.9 54.689C395.82 46.8663 342.13 46.8663 288.797 54.689C283.819 42.9553 276.352 28.0223 270.307 17C219.108 25.5333 170.397 40.8223 124.851 61.7997C32.762 197.622 7.87291 330.243 20.3173 461.087C81.4727 505.53 140.495 532.553 198.487 550.333C212.709 531.133 225.509 510.51 236.531 488.82C215.553 481 195.642 471.4 176.442 460.02C181.42 456.467 186.398 452.557 191.02 448.643C306.931 501.623 432.477 501.623 546.967 448.643C551.943 452.557 556.567 456.467 561.543 460.02C542.343 471.4 522.433 481 501.453 488.82C512.477 510.51 525.277 531.133 539.5 550.333C597.453 532.553 656.833 505.53 717.667 461.087C732.957 309.623 693.453 178.067 613.81 61.7997ZM252.531 380.377C217.686 380.377 189.242 348.733 189.242 309.977C189.242 271.223 216.975 239.577 252.531 239.577C287.73 239.577 316.529 271.223 315.818 309.977C315.818 348.733 287.73 380.377 252.531 380.377ZM486.167 380.377C451.32 380.377 422.84 348.733 422.84 309.977C422.84 271.223 450.61 239.577 486.167 239.577C521.367 239.577 550.167 271.223 549.453 309.977C549.453 348.733 521.723 380.377 486.167 380.377Z" stroke="#3554F9" stroke-width="33.3333" stroke-linejoin="round"/>
</svg>
