<svg width="800" height="800" viewBox="0 0 800 800" fill="none" xmlns="http://www.w3.org/2000/svg">
<path fill-rule="evenodd" clip-rule="evenodd" d="M799.999 280.723C799.999 229.661 784.34 184.567 753.399 146.518C760.285 122.468 767.643 74.816 744.296 15.7225C741.843 9.44092 736.466 4.5502 729.768 2.35125C721.373 -0.385546 676.235 -10.3017 585.77 48.6121C548.885 39.3689 509.973 34.6129 469.693 34.3886C429.554 34.6129 390.642 39.3689 353.852 48.6121C263.293 -10.2566 218.155 -0.385546 209.712 2.35167C203.014 4.50517 197.637 9.44092 195.185 15.7676C171.885 74.816 179.243 122.468 186.176 146.518C155.187 184.702 139.481 229.751 139.481 280.723C139.481 457.016 236.738 513.013 328.902 533.25C308.526 554.473 287.159 585.433 282.584 624.783C251.124 635.642 169.668 657.359 140.094 606.432C138.774 604.099 107.927 549.044 45.8561 544.691C34.8661 545.185 8.78306 546.486 1.56674 567.35C-6.54587 590.683 18.8767 608.092 31.3287 616.303C31.5645 616.438 55.7608 629.63 72.4576 671.358C72.8823 673.288 82.8813 719.19 131.604 747.054C169.95 769.04 220.277 773.527 281.169 760.514C281.169 770.296 281.027 780.616 280.981 786.943L280.839 799.91H328.006L328.1 787.481C328.949 720.132 328.996 718.83 314.61 711.741C309.139 709.049 302.772 708.421 296.923 710.216C237.21 727.311 188.676 726.907 156.65 709.049C125.756 691.729 118.964 663.641 117.691 659.154C115.993 654.712 114.153 650.539 112.314 646.545C167.97 707.299 275.415 678.717 315.365 660.635C323.619 656.955 328.855 649.058 328.855 640.398C328.855 578.119 393.85 538.589 394.51 538.185C403 533.115 407.198 523.513 405.028 514.27C402.859 504.982 394.793 497.982 384.841 496.86C286.829 485.688 186.648 451.273 186.648 280.723C186.648 236.392 201.364 197.759 230.371 165.991C236.031 159.709 237.682 150.96 234.569 143.242C230.277 132.653 218.58 96.2188 234.428 45.3366C250.087 47.0419 283.009 55.477 335.741 91.3281C341.589 95.3216 349.089 96.4882 356.07 94.6036C391.35 84.7771 430.734 79.4824 469.694 79.2581C508.841 79.4824 548.178 84.7771 583.553 94.6036C590.534 96.4882 597.986 95.3216 603.882 91.3281C656.991 55.2081 689.96 46.9518 705.007 45.2019C720.996 96.1292 709.299 132.653 705.007 143.242C701.847 150.96 703.497 159.754 709.204 165.991C738.164 197.669 752.833 236.257 752.833 280.723C752.833 451.317 652.416 485.508 554.216 496.501C545.018 497.533 537.283 503.546 534.5 511.936C531.67 520.282 534.264 529.48 541.103 535.403C543.887 537.781 547.659 540.608 552.093 543.839C574.591 560.216 612.23 587.632 612.23 652.064C612.23 687.691 611.617 799.775 611.617 799.775L658.784 800C658.784 800 659.397 687.736 659.397 652.064C659.397 592.926 634.634 556.178 610.815 532.846C703.026 512.654 800 456.747 800 280.723" fill="#3554F9"/>
</svg>
