<svg width="800" height="800" viewBox="0 0 800 800" fill="none" xmlns="http://www.w3.org/2000/svg">
<path d="M625.25 799.972C615.528 799.972 607.611 792.083 607.611 782.361V514.704C607.611 417.93 557.945 417.93 539.222 417.93C487.056 417.93 460.639 450.484 460.639 514.704V782.389C460.639 792.111 452.75 800 443.028 800H291.667C281.945 800 274.056 792.111 274.056 782.389V272.49C274.056 262.768 281.945 254.88 291.667 254.88H443.056C452.778 254.88 460.667 262.768 460.667 272.49V291.489L469.778 283.962C505.611 254.324 548.361 239.297 596.833 239.297C656.75 239.297 707.195 258.435 742.695 294.684C780.195 332.96 800 389.958 800 459.484V782.389C800 792.111 792.083 800 782.361 800L625.25 799.972ZM539.25 382.653C577.972 382.653 642.917 399.819 642.917 514.704V764.751H764.722V459.484C764.722 341.96 703.528 274.573 596.833 274.573C501.556 274.573 460.278 346.515 458.556 349.571C455.445 355.209 449.556 358.709 443.139 358.709C441.695 358.709 440.222 358.487 438.722 358.126C430.889 356.154 425.417 349.182 425.417 341.182V290.156H309.306V764.779H425.417V514.704C425.417 432.012 467.972 382.653 539.25 382.653Z" fill="#3554F9"/>
<path d="M32.7776 799.972C23.0553 799.972 15.1387 792.083 15.1387 782.361V272.49C15.1387 262.768 23.0553 254.88 32.7776 254.88H190.694C200.416 254.88 208.305 262.768 208.305 272.49V782.361C208.305 792.083 200.416 799.972 190.694 799.972H32.7776ZM50.4164 764.751H173.055V290.129H50.4164V764.751Z" fill="#3554F9"/>
<path d="M111.028 223.298C49.8056 223.298 0 173.216 0 111.663C0 50.0816 49.8056 0 111.028 0C172.167 0 221.944 50.1094 221.944 111.691C221.944 173.216 172.167 223.298 111.028 223.298ZM111.028 35.1655C69.25 35.1655 35.2778 69.4698 35.2778 111.663C35.2778 153.828 69.25 188.077 111.028 188.077C152.778 188.077 186.722 153.828 186.722 111.663C186.694 69.4976 152.778 35.1655 111.028 35.1655Z" fill="#3554F9"/>
</svg>
