<svg width="48" height="48" viewBox="0 0 48 48" fill="none" xmlns="http://www.w3.org/2000/svg">
<g clip-path="url(#clip0_108_2)">
<path fill-rule="evenodd" clip-rule="evenodd" d="M0 24C0 10.7452 10.7452 0 24 0C37.2548 0 48 10.7452 48 24C48 37.2548 37.2548 48 24 48C10.7452 48 0 37.2548 0 24ZM33.8949 10.4H14.9051C13.3038 10.4 12 11.688 12 13.284V32.212C12 33.808 13.3038 35.096 14.9051 35.096H30.9755L30.2245 32.506L32.0384 34.172L33.7531 35.74L36.8 38.4V13.284C36.8 11.688 35.4962 10.4 33.8949 10.4Z" fill="black"/>
<path fill-rule="evenodd" clip-rule="evenodd" d="M28.4248 28.6839C28.4248 28.6839 27.9146 28.0819 27.4895 27.5499C29.3459 27.0319 30.0545 25.8839 30.0545 25.8839C29.4735 26.2619 28.9208 26.5279 28.4248 26.7099C27.7162 27.0039 27.036 27.1999 26.3699 27.3119C25.0095 27.5639 23.7624 27.4939 22.6995 27.2979C21.8918 27.1439 21.1974 26.9199 20.6163 26.6959C20.2904 26.5699 19.9361 26.4159 19.5818 26.2199C19.5393 26.1919 19.4968 26.1779 19.4543 26.1499C19.4259 26.1359 19.4118 26.1219 19.3976 26.1079C19.1425 25.9679 19.0008 25.8699 19.0008 25.8699C19.0008 25.8699 19.681 26.9899 21.4808 27.5219C21.0556 28.0539 20.5313 28.6839 20.5313 28.6839C17.3994 28.5859 16.209 26.5559 16.209 26.5559C16.209 22.0479 18.2497 18.3939 18.2497 18.3939C20.2904 16.8819 22.2319 16.9239 22.2319 16.9239L22.3736 17.0919C19.8227 17.8199 18.6465 18.9259 18.6465 18.9259C18.6465 18.9259 18.9583 18.7579 19.4826 18.5199C20.999 17.8619 22.2035 17.6799 22.6995 17.6379C22.7846 17.6239 22.8554 17.6099 22.9404 17.6099C23.8049 17.4979 24.7827 17.4699 25.8031 17.5819C27.1494 17.7359 28.5948 18.1279 30.0687 18.9259C30.0687 18.9259 28.9491 17.8759 26.54 17.1479L26.7384 16.9239C26.7384 16.9239 28.6799 16.8819 30.7206 18.3939C30.7206 18.3939 32.7612 22.0479 32.7612 26.5559C32.7612 26.5559 31.5567 28.5859 28.4248 28.6839ZM22.2342 22.3999C21.4328 22.3999 20.8001 23.1206 20.8001 23.9999C20.8001 24.8792 21.4468 25.5999 22.2342 25.5999C23.0356 25.5999 23.6683 24.8792 23.6683 23.9999C23.6823 23.1206 23.0356 22.3999 22.2342 22.3999ZM27.366 22.3999C26.5646 22.3999 25.9319 23.1206 25.9319 23.9999C25.9319 24.8792 26.5787 25.5999 27.366 25.5999C28.1674 25.5999 28.8001 24.8792 28.8001 23.9999C28.8001 23.1206 28.1674 22.3999 27.366 22.3999Z" fill="black"/>
</g>
<defs>
<clipPath id="clip0_108_2">
<rect width="48" height="48" fill="white"/>
</clipPath>
</defs>
</svg>
